<?xml version="1.0" standalone="no"?>
<!DOCTYPE svg PUBLIC "-//W3C//DTD SVG 20010904//EN"
 "http://www.w3.org/TR/2001/REC-SVG-20010904/DTD/svg10.dtd">
<svg version="1.0" xmlns="http://www.w3.org/2000/svg"
 width="300.000000pt" height="299.000000pt" viewBox="0 0 300.000000 299.000000"
 preserveAspectRatio="xMidYMid meet">
<metadata>
Created by potrace 1.10, written by Peter Selinger 2001-2011
</metadata>
<g transform="translate(0.000000,299.000000) scale(0.100000,-0.100000)"
fill="#000000" stroke="none">
<path d="M1422 2029 c-5 -13 -31 -90 -57 -170 l-49 -146 -75 -7 c-41 -3 -123
-6 -183 -6 l-109 0 143 -107 c79 -58 144 -107 145 -108 3 -2 -96 -326 -103
-337 -12 -18 13 -3 151 93 91 63 149 97 157 93 7 -5 73 -50 145 -101 73 -51
134 -93 137 -93 2 0 -21 78 -50 172 -38 126 -50 175 -41 180 7 3 72 52 146
107 l134 101 -129 1 c-71 1 -153 4 -183 7 l-54 7 -58 169 c-49 142 -60 165
-67 145z m59 -234 c38 -116 50 -123 199 -126 115 -2 123 -9 58 -56 -104 -75
-138 -110 -138 -144 0 -16 12 -72 27 -124 15 -52 24 -97 21 -100 -3 -3 -49 24
-102 60 -53 36 -102 65 -109 65 -13 0 -109 -49 -117 -60 -12 -15 -102 -71
-107 -66 -5 5 2 37 29 126 18 62 21 111 7 137 -7 13 -40 44 -73 67 -34 24 -72
56 -85 70 l-24 26 115 0 c141 0 152 7 192 112 15 40 34 89 42 107 l16 35 13
-30 c7 -16 23 -60 36 -99z"/>
</g>
</svg>
